<?xml version="1.0" encoding="UTF-8" standalone="no"?>
<!-- Created with Inkscape (http://www.inkscape.org/) -->

<svg
   xmlns:dc="http://purl.org/dc/elements/1.1/"
   xmlns:cc="http://creativecommons.org/ns#"
   xmlns:rdf="http://www.w3.org/1999/02/22-rdf-syntax-ns#"
   xmlns:svg="http://www.w3.org/2000/svg"
   xmlns="http://www.w3.org/2000/svg"
   xmlns:xlink="http://www.w3.org/1999/xlink"
   xmlns:sodipodi="http://sodipodi.sourceforge.net/DTD/sodipodi-0.dtd"
   xmlns:inkscape="http://www.inkscape.org/namespaces/inkscape"
   width="80"
   height="80"
   id="svg2"
   version="1.1"
   inkscape:version="0.48.4 r9939"
   sodipodi:docname="icon.svg"
   inkscape:export-filename="/home/psa/home/Projects/salticidae/icon.png"
   inkscape:export-xdpi="90"
   inkscape:export-ydpi="90">
  <defs
     id="defs4">
    <linearGradient
       id="linearGradient3872">
      <stop
         id="stop3874"
         offset="0"
         style="stop-color:#ffffff;stop-opacity:1;" />
      <stop
         style="stop-color:#000000;stop-opacity:1;"
         offset="0.46666667"
         id="stop3876" />
      <stop
         id="stop3878"
         offset="1"
         style="stop-color:#000000;stop-opacity:1;" />
    </linearGradient>
    <linearGradient
       id="linearGradient3788">
      <stop
         style="stop-color:#000000;stop-opacity:0;"
         offset="0"
         id="stop3790" />
      <stop
         id="stop3798"
         offset="0.82222223"
         style="stop-color:#000000;stop-opacity:0;" />
      <stop
         style="stop-color:#000000;stop-opacity:1;"
         offset="1"
         id="stop3792" />
    </linearGradient>
    <radialGradient
       inkscape:collect="always"
       xlink:href="#linearGradient3788"
       id="radialGradient3796"
       cx="40"
       cy="40"
       fx="40"
       fy="40"
       r="35.5"
       gradientUnits="userSpaceOnUse" />
    <radialGradient
       inkscape:collect="always"
       xlink:href="#linearGradient3788-4"
       id="radialGradient3796-0"
       cx="40"
       cy="40"
       fx="40"
       fy="40"
       r="35.5"
       gradientUnits="userSpaceOnUse" />
    <linearGradient
       id="linearGradient3788-4">
      <stop
         style="stop-color:#000000;stop-opacity:0;"
         offset="0"
         id="stop3790-5" />
      <stop
         id="stop3798-9"
         offset="0.82222223"
         style="stop-color:#000000;stop-opacity:0;" />
      <stop
         style="stop-color:#000000;stop-opacity:1;"
         offset="1"
         id="stop3792-7" />
    </linearGradient>
    <radialGradient
       inkscape:collect="always"
       xlink:href="#linearGradient3788-46"
       id="radialGradient3796-02"
       cx="40"
       cy="40"
       fx="40"
       fy="40"
       r="35.5"
       gradientUnits="userSpaceOnUse" />
    <linearGradient
       id="linearGradient3788-46">
      <stop
         style="stop-color:#000000;stop-opacity:0;"
         offset="0"
         id="stop3790-4" />
      <stop
         id="stop3798-4"
         offset="0.82222223"
         style="stop-color:#000000;stop-opacity:0;" />
      <stop
         style="stop-color:#000000;stop-opacity:1;"
         offset="1"
         id="stop3792-71" />
    </linearGradient>
    <radialGradient
       r="35.5"
       fy="40"
       fx="40"
       cy="40"
       cx="40"
       gradientUnits="userSpaceOnUse"
       id="radialGradient4212"
       xlink:href="#linearGradient3788-46"
       inkscape:collect="always" />
    <radialGradient
       inkscape:collect="always"
       xlink:href="#linearGradient3788-6"
       id="radialGradient3796-9"
       cx="40"
       cy="40"
       fx="40"
       fy="40"
       r="35.5"
       gradientUnits="userSpaceOnUse" />
    <linearGradient
       id="linearGradient3788-6">
      <stop
         style="stop-color:#000000;stop-opacity:0;"
         offset="0"
         id="stop3790-6" />
      <stop
         id="stop3798-0"
         offset="0.82222223"
         style="stop-color:#000000;stop-opacity:0;" />
      <stop
         style="stop-color:#000000;stop-opacity:1;"
         offset="1"
         id="stop3792-72" />
    </linearGradient>
  </defs>
  <sodipodi:namedview
     id="base"
     pagecolor="#ffffff"
     bordercolor="#666666"
     borderopacity="1.0"
     inkscape:pageopacity="0.0"
     inkscape:pageshadow="2"
     inkscape:zoom="11.2"
     inkscape:cx="28.905159"
     inkscape:cy="36.280013"
     inkscape:document-units="px"
     inkscape:current-layer="layer1"
     showgrid="true"
     inkscape:window-width="1918"
     inkscape:window-height="1050"
     inkscape:window-x="0"
     inkscape:window-y="28"
     inkscape:window-maximized="0"
     inkscape:snap-page="false"
     inkscape:showpageshadow="true"
     inkscape:snap-grids="false">
    <inkscape:grid
       type="xygrid"
       id="grid3784"
       empspacing="2"
       visible="true"
       enabled="true"
       snapvisiblegridlinesonly="true" />
  </sodipodi:namedview>
  <metadata
     id="metadata7">
    <rdf:RDF>
      <cc:Work
         rdf:about="">
        <dc:format>image/svg+xml</dc:format>
        <dc:type
           rdf:resource="http://purl.org/dc/dcmitype/StillImage" />
        <dc:title></dc:title>
      </cc:Work>
    </rdf:RDF>
  </metadata>
  <g
     inkscape:label="Layer 1"
     inkscape:groupmode="layer"
     id="layer1"
     transform="translate(0,-972.36218)">
    <path
       transform="translate(0,972.36218)"
       sodipodi:type="arc"
       style="fill:#000000;fill-opacity:1;stroke:none;stroke-opacity:1;opacity:0.6728972"
       id="path3786-9"
       sodipodi:cx="40"
       sodipodi:cy="40"
       sodipodi:rx="35"
       sodipodi:ry="35"
       d="M 75,40 A 35,35 0 1 1 5,40 35,35 0 1 1 75,40 z" />
    <path
       style="fill:#ffffff;fill-opacity:1;stroke:#000000;stroke-opacity:1;stroke-width:0.36799999999999999;stroke-miterlimit:4;stroke-dasharray:none"
       d="M 7.4375 52.625 C 7.5133658 52.296653 7.4965944 51.962463 7.625 51.65625 C 8.336483 49.95965 11.296958 40.0627 11.1875 39.625 C 11.132767 39.4061 11.319508 38.26515 11.09375 37.65625 C 10.980871 37.3518 10.779485 37.162862 10.375 37.3125 C 9.9705154 37.462138 9.3619894 37.9348 8.5 38.90625 C 8.5 38.90625 7.2216799 43.622694 6 47.9375 C 6.3747306 49.547927 6.8489536 51.108455 7.4375 52.625 z "
       id="path4188"
       transform="translate(0,972.36218)" />
    <path
       style="fill:#ffffff;fill-opacity:1;stroke:#000000;stroke-opacity:1;stroke-width:0.36799999999999999;stroke-miterlimit:4;stroke-dasharray:none"
       d="M 7.4375 52.625 C 8.0720044 52.166743 8.9375 51.59375 8.9375 51.59375 C 8.9375 51.59375 10.968168 49.33285 13 47 C 15.031832 44.66715 17.066385 42.26975 17.09375 41.96875 C 17.121115 41.66775 17.400506 40.8141 17.25 40 C 17.174747 39.59295 16.996134 39.192262 16.625 38.875 C 16.253866 38.557738 15.678375 38.3321 14.84375 38.25 C 14.84375 38.25 12.704889 39.847813 10.40625 42.1875 C 9.2569307 43.357344 8.0788807 44.72472 7.09375 46.15625 C 6.6772288 46.761512 6.3245276 47.375362 6 48 C 6.3728407 49.589788 6.8561206 51.126922 7.4375 52.625 z "
       id="path4234"
       transform="translate(0,972.36218)" />
    <path
       style="fill:#ffffff;fill-opacity:1;stroke:#000000;stroke-opacity:1;stroke-width:0.368;stroke-miterlimit:4;stroke-dasharray:none"
       d="M 74.71875 37.21875 C 73.864584 36.756842 72.593893 36.163555 72.3125 35.96875 C 71.601017 35.4762 71.171197 34.970038 70.78125 34.59375 C 70.391303 34.217462 70.043409 33.9571 69.46875 33.875 C 68.31943 33.7109 66.34375 33.3125 66.34375 33.3125 C 66.34375 33.3125 65.928039 33.354362 65.53125 33.59375 C 65.332856 33.713444 65.138534 33.876145 65 34.125 C 64.861466 34.373855 64.785135 34.700775 64.8125 35.125 C 64.867232 35.9733 65.325847 36.65295 65.75 37.125 C 66.174153 37.59705 66.5625 37.875 66.5625 37.875 C 66.5625 37.875 67.204396 38.280912 68.09375 38.71875 C 68.983104 39.156588 70.11639 39.6093 71.15625 39.71875 C 71.726661 39.778816 73.492969 40.669975 74.875 41.28125 C 74.890963 40.846991 75 40.43816 75 40 C 75 39.048532 74.79325 38.151051 74.71875 37.21875 z "
       id="path4182"
       transform="translate(0,972.36218)" />
    <path
       style="fill:#ffffff;fill-opacity:1;stroke:#000000;stroke-width:0.36778218;stroke-linecap:butt;stroke-linejoin:miter;stroke-miterlimit:4;stroke-opacity:1;stroke-dasharray:none"
       d="m 18.189062,1006.4 c 0,0 0.9304,10.8913 1.204047,11.4385 0.273649,0.5473 -0.437835,1.7514 0.05473,2.4081 0.492566,0.6568 1.587156,0.3284 1.915532,-0.055 0.328377,-0.3831 -0.492564,-1.5324 -0.273647,-2.4081 0.218918,-0.8756 -0.05473,-11.1648 -0.602024,-11.5479 -0.547295,-0.3832 -0.820942,-1.9156 -2.298638,0.1641 z"
       id="path4130"
       inkscape:connector-curvature="0" />
    <path
       style="fill:#ffffff;fill-opacity:1;stroke:#000000;stroke-width:0.36778218;stroke-linecap:butt;stroke-linejoin:miter;stroke-miterlimit:4;stroke-opacity:1;stroke-dasharray:none"
       d="m 26.179567,1001.5839 c 0,0 -5.801326,1.806 -7.005375,3.1195 -1.204049,1.3135 -1.149319,2.5176 -0.164189,2.5176 0.985131,0 7.169564,-2.244 7.716858,-3.1743 0.547295,-0.9304 1.751344,-2.4628 -0.547294,-2.4628 z"
       id="path4126"
       inkscape:connector-curvature="0" />
    <path
       style="fill:#ffffff;fill-opacity:1;stroke:#000000;stroke-width:0.36778218;stroke-linecap:butt;stroke-linejoin:miter;stroke-miterlimit:4;stroke-opacity:1;stroke-dasharray:none"
       d="m 32.637646,1010.7237 c -2.134451,-6.7865 -2.736475,-8.7021 -4.433089,-9.0852 -1.696614,-0.3831 -2.298639,-0.2189 -2.791203,0.3831 -0.492566,0.6021 -0.05473,3.2839 0.602024,4.4878 0.656753,1.2042 3.666876,6.5677 4.542547,7.115 0.875672,0.5472 2.627015,-0.6021 2.079721,-2.9007 z"
       id="path4124"
       inkscape:connector-curvature="0" />
    <path
       style="fill:#ffffff;fill-opacity:1;stroke:#000000;stroke-width:0.368;stroke-miterlimit:4;stroke-opacity:1;stroke-dasharray:none"
       d="m 69.032756,999.50406 c 0.677985,0.83754 2.463436,3.28934 3.17431,4.48784 0.710874,1.1984 1.306893,1.9197 1.258778,2.5723 -0.04812,0.6526 -0.09166,0.8288 -0.602024,0.8756 -0.510359,0.047 -0.639057,-0.4206 -1.422967,-1.4229 -0.783909,-1.0022 -2.077813,-4.0554 -2.900663,-4.8161 -0.82285,-0.7609 -0.76889,-0.1948 -0.98513,-0.4926 -0.21624,-0.2979 -0.305799,-0.72247 -0.164189,-1.09466 0.141609,-0.3722 0.610828,-0.84541 0.985131,-0.82089 0.374303,0.0245 -0.02123,-0.12603 0.656754,0.71141 z"
       id="path4110"
       inkscape:connector-curvature="0"
       sodipodi:nodetypes="zzzzzzzzzz" />
    <path
       style="fill:#ffffff;fill-opacity:1;stroke:#000000;stroke-width:0.36778218;stroke-linecap:butt;stroke-linejoin:miter;stroke-miterlimit:4;stroke-opacity:1;stroke-dasharray:none"
       d="m 67.4456,998.62837 c 0,0 -8.59253,0.71154 -10.781709,1.3136 -2.189179,0.60193 -2.298639,3.44793 -0.711483,3.33843 1.587155,-0.1091 1.641885,-0.7115 2.572285,-0.8756 0.930402,-0.1642 9.194554,-1.1494 9.194554,-1.1494 0,0 2.353369,-1.47771 -0.273647,-2.62703 z"
       id="path4108"
       inkscape:connector-curvature="0" />
    <path
       style="fill:#ffffff;fill-opacity:1;stroke:#000000;stroke-width:0.36778218;stroke-linecap:butt;stroke-linejoin:miter;stroke-miterlimit:4;stroke-opacity:1;stroke-dasharray:none"
       d="m 54.693629,1000.8177 c -1.915532,2.1343 -2.134449,3.3931 -2.134449,3.3931 0,0 -2.462828,8.9757 -2.353368,9.6872 0.109464,0.7115 0.218917,1.4777 0.98513,1.8608 0.766213,0.3832 3.064851,-0.7662 3.776336,-2.5723 0.711483,-1.8061 2.627015,-9.5229 2.517555,-10.5081 -0.109464,-0.9852 -1.532425,-2.84591 -2.791204,-1.8607 z"
       id="path4106"
       inkscape:connector-curvature="0" />
    <path
       style="fill:#ffffff;fill-opacity:1;stroke:#000000;stroke-width:0.36778218;stroke-linecap:butt;stroke-linejoin:miter;stroke-miterlimit:4;stroke-opacity:1;stroke-dasharray:none"
       d="m 32.035021,1000.6922 c 7.546421,-3.01856 14.783245,-1.62543 14.783245,-1.62543 0,0 1.625382,0.30967 1.934979,4.29573 0.309596,3.986 1.122288,9.2105 1.122288,9.2105 0,0 0.386997,5.4954 -1.586683,7.1595 -1.97368,1.6641 -5.843638,0.7739 -5.843638,0.7739 0,0 -4.218255,1.7029 -6.075836,1.548 -1.857581,-0.1548 -4.721351,-2.3994 -4.721351,-2.3994 0,0 -1.934979,-2.0124 -1.199687,-9.791 0.735292,-7.7786 0.619193,-8.0882 1.586683,-9.1718 z"
       id="path4074"
       inkscape:connector-curvature="0" />
    <path
       style="fill:#ffffff;fill-opacity:1;stroke:#000000;stroke-width:0.36778218;stroke-linecap:butt;stroke-linejoin:miter;stroke-miterlimit:4;stroke-opacity:1;stroke-dasharray:none"
       d="m 22.129584,1005.8527 c 0,0 -11.055357,2.7365 -12.2046757,3.448 -1.149319,0.7116 -1.094589,2.0797 -0.164189,2.2987 0.9304017,0.2189 10.8364387,-2.7913 10.8364387,-2.7913 0,0 3.119581,0.8757 3.502688,-0.8209 0.383106,-1.6967 -1.03986,-2.1345 -1.970262,-2.1345 z"
       id="path4120"
       inkscape:connector-curvature="0" />
    <path
       style="fill:#ffffff;fill-opacity:1;stroke:#000000;stroke-width:0.36778218;stroke-linecap:butt;stroke-linejoin:miter;stroke-miterlimit:4;stroke-opacity:1;stroke-dasharray:none"
       d="m 21.965396,1009.0818 c 0,0 4.542547,8.8662 6.676997,10.0702 2.134451,1.2041 2.900663,-0.1091 3.119581,-1.204 0.218919,-1.0946 -5.746596,-9.7966 -6.841186,-10.3987 -1.09459,-0.6019 -3.831064,0.1643 -2.955392,1.5325 z"
       id="path4118"
       inkscape:connector-curvature="0" />
    <path
       sodipodi:type="arc"
       style="fill:#000000;fill-opacity:1;stroke:none"
       id="path3806"
       sodipodi:cx="34"
       sodipodi:cy="48"
       sodipodi:rx="2.5316322"
       sodipodi:ry="2.5316322"
       d="m 36.531632,48 a 2.5316322,2.5316322 0 1 1 -5.063264,0 2.5316322,2.5316322 0 1 1 5.063264,0 z"
       transform="matrix(1.2106227,0,0,1.2106227,-4.1432868,946.72416)" />
    <path
       transform="matrix(1.2106227,0,0,1.2106227,2.0516403,945.98887)"
       sodipodi:type="arc"
       style="fill:#000000;fill-opacity:1;stroke:none"
       id="path3806-2"
       sodipodi:cx="34"
       sodipodi:cy="48"
       sodipodi:rx="2.5316322"
       sodipodi:ry="2.5316322"
       d="m 36.531632,48 a 2.5316322,2.5316322 0 1 1 -5.063264,0 2.5316322,2.5316322 0 1 1 5.063264,0 z" />
    <path
       sodipodi:type="arc"
       style="fill:#000000;fill-opacity:1;fill-rule:nonzero;stroke:none"
       id="path3806-4"
       sodipodi:cx="34"
       sodipodi:cy="48"
       sodipodi:rx="2.5316322"
       sodipodi:ry="2.5316322"
       d="m 36.531632,48 a 2.5316322,2.5316322 0 1 1 -5.063264,0 2.5316322,2.5316322 0 1 1 5.063264,0 z"
       transform="matrix(0.60531134,0,0,0.60531134,11.90307,974.70483)" />
    <path
       sodipodi:type="arc"
       style="fill:#000000;fill-opacity:1;stroke:none"
       id="path3806-4-8"
       sodipodi:cx="34"
       sodipodi:cy="48"
       sodipodi:rx="2.5316322"
       sodipodi:ry="2.5316322"
       d="m 36.531632,48 a 2.5316322,2.5316322 0 1 1 -5.063264,0 2.5316322,2.5316322 0 1 1 5.063264,0 z"
       transform="matrix(0.60531134,0,0,0.60531134,26.836829,973.04078)" />
    <path
       sodipodi:type="arc"
       style="fill:#ffffff;fill-opacity:1;fill-rule:nonzero;stroke:none"
       id="path3806-4-9"
       sodipodi:cx="34"
       sodipodi:cy="48"
       sodipodi:rx="2.5316322"
       sodipodi:ry="2.5316322"
       d="m 36.531632,48 a 2.5316322,2.5316322 0 1 1 -5.063264,0 2.5316322,2.5316322 0 1 1 5.063264,0 z"
       transform="matrix(0.03424159,-0.03424159,0.04280197,0.04280197,29.832797,1002.1178)" />
    <path
       sodipodi:type="arc"
       style="fill:#ffffff;fill-opacity:1;fill-rule:nonzero;stroke:none"
       id="path3806-4-9-2"
       sodipodi:cx="34"
       sodipodi:cy="48"
       sodipodi:rx="2.5316322"
       sodipodi:ry="2.5316322"
       d="m 36.531632,48 a 2.5316322,2.5316322 0 1 1 -5.063264,0 2.5316322,2.5316322 0 1 1 5.063264,0 z"
       transform="matrix(0.07133662,-0.07133662,0.08560395,0.08560395,31.685015,1001.6425)" />
    <path
       sodipodi:type="arc"
       style="fill:#ffffff;fill-opacity:1;fill-rule:nonzero;stroke:none"
       id="path3806-4-9-2-6"
       sodipodi:cx="34"
       sodipodi:cy="48"
       sodipodi:rx="2.5316322"
       sodipodi:ry="2.5316322"
       d="m 36.531632,48 a 2.5316322,2.5316322 0 1 1 -5.063264,0 2.5316322,2.5316322 0 1 1 5.063264,0 z"
       transform="matrix(0.07133662,-0.07133662,0.08560395,0.08560395,37.879942,1000.9071)" />
    <path
       sodipodi:type="arc"
       style="fill:#ffffff;fill-opacity:1;fill-rule:nonzero;stroke:none"
       id="path3806-4-9-0"
       sodipodi:cx="34"
       sodipodi:cy="48"
       sodipodi:rx="2.5316322"
       sodipodi:ry="2.5316322"
       d="m 36.531632,48 a 2.5316322,2.5316322 0 1 1 -5.063264,0 2.5316322,2.5316322 0 1 1 5.063264,0 z"
       transform="matrix(0.03424159,-0.03424159,0.04280197,0.04280197,44.827853,1000.4537)" />
    <path
       style="fill:#ffffff;fill-opacity:1;stroke:#000000;stroke-width:0.36778218;stroke-linecap:butt;stroke-linejoin:miter;stroke-miterlimit:4;stroke-opacity:1;stroke-dasharray:none"
       d="m 67.96553,1007.1115 c 0,0 0.05473,-2.1892 -2.380732,-1.6692 -2.435462,0.5199 -13.682372,10.727 -13.682372,10.727 0,0 -1.368238,1.3681 -0.246283,2.326 1.121954,0.9577 0.848307,1.1766 2.18918,1.1766 1.340872,0 6.40841,-3.6729 8.756719,-5.8286 2.348307,-2.1558 5.336124,-4.7067 5.363488,-6.7318 z"
       id="path4100"
       inkscape:connector-curvature="0"
       sodipodi:nodetypes="cscsszc" />
    <path
       style="fill:#ffffff;fill-opacity:1;stroke:#000000;stroke-width:0.36778218;stroke-linecap:butt;stroke-linejoin:miter;stroke-miterlimit:4;stroke-opacity:1;stroke-dasharray:none"
       d="m 33.075481,1020.2466 c 0,0 -10.398602,-8.7567 -16.473575,-9.6871 -6.074974,-0.9304 -1.532425,5.1445 0,5.9656 1.532426,0.8209 10.179684,5.4181 12.368864,6.239 2.189179,0.821 5.418219,0 4.104711,-2.5175 z"
       id="path4112"
       inkscape:connector-curvature="0"
       sodipodi:nodetypes="csssc" />
    <path
       style="fill:#ffffff;fill-opacity:1;stroke:#000000;stroke-width:0.368;stroke-linecap:butt;stroke-linejoin:miter;stroke-miterlimit:4;stroke-opacity:1;stroke-dasharray:none"
       d="m 20.192946,1014.0049 c 0,0 9.404001,3.6377 9.945796,4.0635 0.541793,0.4256 1.277085,1.5093 1.277085,1.5093 0,0 2.244577,2.5155 -0.0387,3.8699 -2.283276,1.3545 -13.273959,-3.2895 -13.273959,-3.2895 0,0 -1.818882,-0.5804 -1.934981,-1.5867 -0.116096,-1.0061 0.425696,-2.2058 0.425696,-2.2058 0,0 1.354486,-3.0573 3.599062,-2.3607 z"
       id="path4076"
       inkscape:connector-curvature="0" />
    <path
       style="fill:#ffffff;fill-opacity:1;stroke:#000000;stroke-width:0.36778218;stroke-linecap:butt;stroke-linejoin:miter;stroke-miterlimit:4;stroke-opacity:1;stroke-dasharray:none"
       d="m 37.83996,1018.3392 c 0,0 0.116097,-2.0897 -2.360675,-2.4768 -2.476775,-0.3869 -4.218256,6.7725 -4.218256,6.7725 0,0 0.232198,3.1734 3.637763,3.986 3.405563,0.8127 2.941168,-8.2817 2.941168,-8.2817 z"
       id="path4050"
       inkscape:connector-curvature="0" />
    <path
       style="fill:#ffffff;fill-opacity:1;stroke:#000000;stroke-width:0.36778218;stroke-linecap:butt;stroke-linejoin:miter;stroke-miterlimit:4;stroke-opacity:1;stroke-dasharray:none"
       d="m 32.228519,1013.9662 c 0,0 -1.857581,-0.6191 -1.315786,3.5217 0.541795,4.1409 1.199687,7.585 1.199687,7.585 0,0 0.309597,2.1285 2.78637,0.1165 2.476774,-2.0124 -0.928789,-9.0169 -0.928789,-9.0169 0,0 -0.193498,-2.0124 -1.741482,-2.206 z"
       id="path4054"
       inkscape:connector-curvature="0" />
    <path
       style="fill:#ffffff;fill-opacity:1;stroke:#000000;stroke-width:0.36778218;stroke-linecap:butt;stroke-linejoin:miter;stroke-miterlimit:4;stroke-opacity:1;stroke-dasharray:none"
       d="m 31.957622,1012.6117 c 0,0 -2.167177,0.2322 -2.244576,2.322 -0.07741,2.0898 2.78637,2.0511 2.78637,2.0511 0,0 2.051079,-0.3483 1.89628,-1.8576 -0.154798,-1.5093 -1.238387,-2.6316 -2.438074,-2.5155 z"
       id="path4056"
       inkscape:connector-curvature="0" />
    <path
       style="fill:none;stroke:#000000;stroke-width:0.73556435;stroke-linecap:butt;stroke-linejoin:miter;stroke-miterlimit:4;stroke-opacity:1;stroke-dasharray:none"
       d="m 35.786935,1011.8702 c 1.422829,0.5738 9.932803,-0.4519 10.590409,-0.86 0.547295,-0.3396 1.13595,-1.0182 0.08921,-0.6841 -2.564692,0.8184 -9.242702,1.4439 -11.137036,0.756 -1.702783,-0.387 -0.965409,0.2144 0.45742,0.7881 z"
       id="path4134"
       inkscape:connector-curvature="0"
       sodipodi:nodetypes="zsscz" />
    <path
       sodipodi:type="arc"
       style="fill:url(#radialGradient3796);fill-opacity:1;stroke:#000000;stroke-opacity:1"
       id="path3786"
       sodipodi:cx="40"
       sodipodi:cy="40"
       sodipodi:rx="35"
       sodipodi:ry="35"
       d="M 75,40 A 35,35 0 1 1 5,40 35,35 0 1 1 75,40 z"
       transform="translate(0,972.36218)" />
    <path
       style="fill:#ffffff;fill-opacity:1;stroke:#000000;stroke-width:0.36778218;stroke-miterlimit:4;stroke-opacity:1;stroke-dasharray:none"
       d="m 17.90967,1014.5466 c -1.436817,-0.1763 -4.327842,-0.488 -7.00958,2.1318 -2.1851435,2.1347 -0.838356,2.9152 -0.06412,3.3482 0.774239,0.433 4.710039,-0.1781 6.549075,-0.9708 3.956284,-1.7054 1.961439,-4.3327 0.524625,-4.5092 z"
       id="path4080"
       inkscape:connector-curvature="0"
       sodipodi:nodetypes="zszsz" />
    <path
       style="fill:#ffffff;fill-opacity:1;stroke:#000000;stroke-width:0.36778218;stroke-linecap:butt;stroke-linejoin:miter;stroke-miterlimit:4;stroke-opacity:1;stroke-dasharray:none"
       d="m 66.504176,1017.562 c 0,0 -2.298638,-1.5324 -7.771588,-1.7512 -5.472949,-0.219 -7.771587,0.2188 -8.866177,1.6417 -1.094589,1.4231 -1.641885,1.9704 -1.422966,3.5028 0.218917,1.5324 3.312535,0.6022 5.063878,0.7117 1.751344,0.1091 5.545049,0.7112 7.515311,0.6018 1.970262,-0.1091 4.496411,0 6.466672,-0.6568 1.970262,-0.6567 1.204049,-2.5176 1.204049,-2.5176 z"
       id="path4090"
       inkscape:connector-curvature="0"
       sodipodi:nodetypes="cccsccccc" />
    <path
       style="fill:#ffffff;fill-opacity:1;stroke:#000000;stroke-width:0.36778218;stroke-linecap:butt;stroke-linejoin:miter;stroke-miterlimit:4;stroke-opacity:1;stroke-dasharray:none"
       d="m 59.236177,1010.0669 c 0,0 -7.005374,5.473 -7.44321,6.4582 -0.437836,0.985 -1.422966,2.408 -0.766213,3.1742 0.656754,0.7662 0.328377,2.0798 2.07972,1.6419 1.751344,-0.4378 10.508062,-6.3486 10.508062,-6.3486 0,0 1.641885,-1.0946 0.218918,-3.5027 -1.422967,-2.4081 -4.597277,-1.423 -4.597277,-1.423 z"
       id="path4084"
       inkscape:connector-curvature="0" />
    <path
       style="fill:#ffffff;fill-opacity:1;stroke:#000000;stroke-width:0.36778218;stroke-linecap:butt;stroke-linejoin:miter;stroke-miterlimit:4;stroke-opacity:1;stroke-dasharray:none"
       d="m 44.689788,1017.1396 c 0,0 2.205876,6.8111 4.798749,6.7724 2.592873,-0.038 2.360676,-3.87 2.360676,-3.87 0,0 -2.631573,-5.8437 -5.069647,-5.6888 -2.438074,0.1548 -2.089778,2.7864 -2.089778,2.7864 z"
       id="path4052"
       inkscape:connector-curvature="0" />
    <path
       style="fill:#ffffff;fill-opacity:1;stroke:#000000;stroke-width:0.36778218;stroke-linecap:butt;stroke-linejoin:miter;stroke-miterlimit:4;stroke-opacity:1;stroke-dasharray:none"
       d="m 50.688224,1011.4894 c 0,0 -1.89628,-0.1165 -1.780181,1.8577 0.116097,1.9736 -1.044889,8.0107 -1.044889,8.0107 0,0 -0.0387,2.5929 2.360675,1.8963 2.399375,-0.6966 2.438075,-3.0186 2.438075,-3.0186 0,0 -0.0387,-5.6114 -0.348296,-6.308 -0.309598,-0.6965 0.348296,-2.5155 -1.625384,-2.4381 z"
       id="path4060"
       inkscape:connector-curvature="0" />
    <path
       style="fill:#ffffff;fill-opacity:1;stroke:#000000;stroke-width:0.36778218;stroke-linecap:butt;stroke-linejoin:miter;stroke-miterlimit:4;stroke-opacity:1;stroke-dasharray:none"
       d="m 50.18513,1009.864 c 0,0 -1.431885,0.271 -1.122289,1.5093 0.309597,1.2384 0.309597,1.5094 0.309597,1.5094 0,0 0.270897,1.1609 1.277087,1.1609 1.006189,0 1.702782,-0.9287 1.702782,-0.9287 0,0 0.619193,-1.5094 0.0387,-2.5929 -0.580497,-1.0836 -2.20588,-0.658 -2.20588,-0.658 z"
       id="path4064"
       inkscape:connector-curvature="0" />
    <path
       style="fill:#ffffff;fill-opacity:1;stroke:#000000;stroke-width:0.36778218;stroke-linecap:butt;stroke-linejoin:miter;stroke-miterlimit:4;stroke-opacity:1;stroke-dasharray:none"
       d="m 65.538861,1008.6649 c 0,0 -3.502688,0.3283 -5.254031,2.1892 -1.751344,1.8607 -0.109464,3.6121 1.204048,3.7216 1.313508,0.1091 4.816195,-1.8609 5.582408,-2.1892 0.766213,-0.3284 2.408098,-4.1595 -1.532425,-3.7216 z"
       id="path4086"
       inkscape:connector-curvature="0" />
    <path
       style="fill:#ffffff;fill-opacity:1;stroke:#000000;stroke-width:0.36778218;stroke-linecap:butt;stroke-linejoin:miter;stroke-miterlimit:4;stroke-opacity:1;stroke-dasharray:none"
       d="m 11.912087,1016.6547 c 0,0 -3.1263682,-0.2023 -6.1062369,1.1908 -2.9798687,1.3932 -0.4643951,1.161 -3.4055641,1.8963 -2.94116941,0.7354 -1.2770864,1.6254 -1.2770864,1.6254 0,0 0.6965925,0.9675 1.6640823,0.9675 0.9674898,0 3.79256,-1.7415 3.79256,-1.7415 0,0 0.3095968,-0.6579 2.1284776,-0.9287 1.8188805,-0.271 0.7739919,0.2708 2.5541735,0.2322 1.780181,-0.039 1.771881,-0.9975 1.771881,-0.9975 0,0 1.8667,-1.1372 -1.122287,-2.2445 z"
       id="path4082"
       inkscape:connector-curvature="0"
       sodipodi:nodetypes="ccccsccccc" />
    <path
       style="fill:#ffffff;fill-opacity:1;stroke:#000000;stroke-width:0.36778218;stroke-linecap:butt;stroke-linejoin:miter;stroke-miterlimit:4;stroke-opacity:1;stroke-dasharray:none"
       d="m 78.126643,1006.5851 c 0,0 -4.487818,0.2189 -6.676998,1.5324 -2.18918,1.3136 -0.547295,0.1091 -3.283769,0 -2.736475,-0.1091 -2.845934,0.219 -3.502688,1.7514 -0.656753,1.5324 0.437836,2.7364 2.408098,2.6271 1.970262,-0.1091 1.970262,-2.0798 3.940524,-2.2987 1.97026,-0.2189 5.801324,-0.7662 7.005373,-1.3135 1.204049,-0.5473 2.298639,-0.6568 0.109465,-2.2987 z"
       id="path4088"
       inkscape:connector-curvature="0" />
    <path
       style="fill:#ffffff;fill-opacity:1;stroke:#000000;stroke-width:0.36778218;stroke-linecap:butt;stroke-linejoin:miter;stroke-miterlimit:4;stroke-opacity:1;stroke-dasharray:none"
       d="m 75.065508,1027.9292 c 0,0 -0.633964,-1.3628 -1.49245,-3.0132 -1.304915,-1.8291 -0.875672,-1.7514 -2.736475,-3.831 -1.860802,-2.0799 -4.159441,-3.5028 -5.472949,-3.5028 -1.313507,0 -1.532425,0.7662 -1.313507,1.3135 0.218918,0.5473 3.064851,2.1893 3.17431,3.3932 0.109464,1.204 0.437836,2.4082 1.970261,3.6122 1.532426,1.2041 2.805959,5.5309 4.228925,5.8592 1.422967,0.3284 2.955392,-0.3283 2.517556,-1.6419 -0.437836,-1.3135 -0.875671,-2.1892 -0.875671,-2.1892 z"
       id="path4096"
       inkscape:connector-curvature="0"
       sodipodi:nodetypes="cccssscccc" />
    <path
       style="fill:#ffffff;fill-opacity:1;stroke:#000000;stroke-width:0.36778218;stroke-linecap:butt;stroke-linejoin:miter;stroke-miterlimit:4;stroke-opacity:1;stroke-dasharray:none"
       d="m 74.874652,1029.0632 c 0,0 -0.920874,-0.8908 -1.924119,0.819 -1.003203,1.7098 -2.570892,8.4421 -2.570892,8.4421 0,0 -2.044128,5.9201 -1.86753,6.5984 0.176639,0.6783 -0.291013,1.1887 0.842359,1.3351 1.133331,0.1465 -0.04278,-0.978 0.62667,-2.4773 0.669451,-1.4992 6.133797,-12.1257 5.812568,-12.7486 -0.321232,-0.6229 0.769403,-1.4546 -0.919052,-1.9687 z"
       id="path4098"
       inkscape:connector-curvature="0" />
  </g>
</svg>
